<?xml version="1.0" standalone="no"?>
<!DOCTYPE svg PUBLIC "-//W3C//DTD SVG 20010904//EN"
 "http://www.w3.org/TR/2001/REC-SVG-20010904/DTD/svg10.dtd">
<svg version="1.0" xmlns="http://www.w3.org/2000/svg"
 width="400.000000pt" height="400.000000pt" viewBox="0 0 400.000000 400.000000"
 preserveAspectRatio="xMidYMid meet">
<metadata>
Created by potrace 1.14, written by Peter Selinger 2001-2017
</metadata>
<g transform="translate(0.000000,400.000000) scale(0.100000,-0.100000)"
fill="#000000" stroke="none">
<path d="M1873 3656 c0 -8 5 -12 10 -9 6 4 7 1 2 -6 -5 -9 -10 -10 -18 -2 -7
7 -16 7 -29 0 -13 -7 -18 -6 -18 3 0 10 -2 10 -9 -1 -5 -7 -14 -10 -20 -7 -6
4 -14 1 -17 -8 -3 -9 -12 -12 -21 -9 -10 4 -14 2 -10 -3 3 -6 -8 -10 -27 -9
-25 2 -33 -2 -32 -14 1 -12 -6 -15 -28 -13 -15 2 -26 0 -23 -5 3 -5 -3 -15
-15 -22 -11 -7 -18 -8 -14 -3 3 5 -1 9 -8 9 -8 0 -12 -6 -9 -12 4 -11 -27 -31
-35 -23 -2 2 -9 -7 -15 -19 -7 -12 -15 -22 -19 -22 -5 -1 -8 -4 -9 -8 -1 -13
-43 -32 -54 -25 -5 3 -3 -3 5 -13 8 -10 10 -16 4 -12 -7 4 -15 0 -18 -8 -3 -8
-11 -14 -18 -13 -7 2 -12 -3 -10 -11 1 -7 -7 -22 -19 -32 -12 -10 -18 -19 -13
-19 5 0 -2 -7 -14 -16 -19 -13 -21 -18 -10 -32 7 -10 9 -14 4 -10 -12 10 -39
-19 -31 -33 4 -5 -1 -16 -11 -23 -10 -8 -18 -28 -20 -47 -2 -48 -3 -51 -14
-44 -6 3 -7 -1 -4 -9 4 -10 1 -16 -7 -16 -7 0 -10 -3 -6 -6 3 -3 2 -17 -4 -31
-6 -16 -6 -22 1 -18 6 3 10 2 10 -4 0 -5 -4 -12 -9 -16 -6 -3 -8 -15 -6 -26 3
-17 2 -19 -10 -9 -11 9 -13 7 -11 -12 1 -13 6 -30 11 -37 6 -10 4 -12 -6 -6
-12 7 -12 6 -1 -7 7 -9 24 -19 38 -22 15 -4 22 -11 18 -18 -5 -7 2 -9 20 -6
15 3 26 1 26 -6 0 -6 4 -5 9 3 7 11 9 11 14 0 3 -8 6 -9 6 -4 1 6 30 8 76 5
41 -3 75 -2 75 1 0 3 16 3 37 0 35 -6 54 -33 32 -47 -5 -3 -6 -11 -2 -17 12
-19 11 -57 -1 -57 -6 0 -5 -4 2 -9 8 -4 14 -12 14 -16 0 -4 -6 -12 -14 -16 -7
-5 -8 -9 -2 -9 14 0 14 -30 0 -30 -7 0 -7 -3 -1 -8 14 -10 17 -32 4 -32 -8 0
-8 -4 0 -14 9 -10 9 -16 1 -21 -8 -5 -8 -11 0 -20 7 -9 6 -16 -5 -25 -8 -7
-15 -9 -15 -4 0 5 -5 2 -10 -6 -5 -8 -10 -10 -10 -4 0 14 -32 13 -42 -1 -5 -6
-8 -5 -8 2 0 9 -7 10 -25 3 -14 -5 -27 -6 -30 0 -7 12 -45 8 -45 -5 0 -5 -4
-4 -9 3 -4 8 -12 14 -16 14 -4 0 -12 -6 -16 -14 -5 -7 -9 -8 -9 -2 0 14 -30
14 -30 0 0 -6 -4 -5 -9 2 -4 8 -12 14 -16 14 -4 0 -12 -6 -16 -14 -6 -8 -12
-9 -16 -3 -10 13 -53 15 -53 3 0 -5 -9 -4 -19 2 -13 7 -22 7 -26 0 -4 -7 -12
-7 -24 0 -10 5 -20 7 -23 5 -2 -2 -3 19 -2 48 1 28 -3 58 -10 66 -8 11 -8 13
0 8 14 -8 14 91 0 112 -6 9 -5 12 2 8 13 -9 11 75 -3 85 -7 5 -6 8 1 8 7 0 10
34 10 94 0 64 -3 93 -10 88 -6 -3 -5 2 2 11 25 31 4 38 -106 37 -59 -1 -109
-1 -112 0 -15 4 -130 4 -130 0 0 -6 -130 -2 -147 5 -7 2 -13 1 -13 -3 0 -4
-80 -6 -177 -5 -98 1 -178 3 -178 3 0 1 -28 2 -63 3 -34 1 -62 0 -62 -3 0 -3
-29 -4 -65 -2 l-65 2 0 -285 c0 -177 4 -285 10 -285 5 0 7 -8 4 -17 -3 -10 2
-7 10 7 8 14 15 20 16 13 0 -13 17 -12 40 1 8 5 12 6 8 1 -5 -5 1 -15 12 -22
16 -12 24 -12 35 -3 8 7 12 17 8 23 -3 6 -1 7 5 3 6 -4 9 -13 6 -20 -7 -19 34
-15 46 4 8 12 10 12 10 -4 0 -11 3 -16 6 -13 4 3 16 2 27 -4 14 -8 18 -8 13 0
-4 6 0 11 9 11 10 0 13 5 9 12 -4 7 -3 8 5 4 6 -4 9 -11 7 -15 -3 -4 32 -7 77
-6 89 1 110 -2 101 -16 -3 -5 1 -9 8 -9 9 0 9 -3 -2 -10 -11 -7 -11 -10 -2
-10 9 0 10 -5 2 -19 -7 -14 -6 -21 3 -24 6 -3 7 -6 1 -6 -10 -1 -10 -71 1 -98
2 -7 0 -13 -5 -13 -5 0 -5 -13 0 -30 6 -21 5 -30 -3 -30 -8 0 -7 -3 2 -9 8 -5
9 -10 3 -12 -8 -3 -8 -17 -3 -41 6 -25 5 -38 -1 -38 -6 0 -5 -6 2 -15 10 -12
10 -15 -1 -15 -12 0 -12 -2 0 -9 8 -5 9 -11 3 -15 -7 -4 -7 -17 -2 -36 6 -21
5 -30 -3 -30 -7 0 -6 -4 3 -10 8 -5 10 -10 4 -10 -11 0 -10 -57 1 -87 2 -7 1
-13 -3 -13 -11 0 -5 -72 6 -79 15 -9 196 -6 212 4 8 5 11 4 7 -2 -4 -6 26 -9
83 -7 63 1 90 -1 90 -9 0 -8 3 -9 8 -1 4 6 47 10 110 10 62 -1 102 3 102 9 0
6 3 6 8 -1 9 -13 144 -13 154 1 5 6 8 6 8 -1 0 -8 16 -11 45 -9 25 2 45 -1 45
-6 0 -6 4 -8 8 -5 11 6 8 -106 -2 -123 -6 -9 -5 -12 1 -8 5 4 10 -6 10 -23 0
-17 -5 -27 -10 -23 -6 4 -7 1 -2 -7 12 -20 15 -60 4 -60 -6 0 -7 -6 -2 -12 12
-19 11 -71 -1 -83 -6 -5 -18 -10 -26 -10 -8 0 -18 5 -22 10 -5 7 -8 7 -8 0 0
-13 -110 -13 -110 0 0 7 -3 7 -8 0 -9 -13 -112 -13 -112 0 0 7 -3 7 -8 0 -4
-5 -14 -10 -22 -10 -8 0 -18 5 -22 10 -5 6 -8 6 -8 -1 0 -6 -7 -11 -15 -11 -8
0 -15 5 -15 11 0 7 -3 7 -8 1 -4 -5 -37 -10 -75 -10 -38 0 -67 4 -67 10 0 7
-3 7 -8 0 -4 -5 -14 -10 -22 -10 -8 0 -18 5 -22 10 -5 6 -8 6 -8 -1 0 -6 -7
-11 -15 -11 -8 0 -15 5 -15 11 0 7 -3 7 -8 1 -4 -5 -37 -10 -75 -10 -38 0 -67
4 -67 10 0 7 -3 7 -8 0 -4 -5 -14 -10 -22 -10 -8 0 -18 5 -22 10 -5 6 -8 6 -8
-2 0 -12 -17 -12 -37 0 -6 4 -15 3 -18 -3 -9 -14 -9 -96 0 -110 3 -5 2 -10 -4
-10 -6 0 -6 -11 -1 -30 6 -21 5 -30 -3 -30 -8 0 -7 -3 2 -9 8 -5 9 -10 3 -12
-8 -3 -8 -17 -3 -41 6 -25 5 -38 -1 -38 -6 0 -6 -5 1 -14 9 -11 9 -15 -1 -19
-11 -4 -10 -6 0 -6 7 -1 10 -6 6 -12 -9 -16 -11 -109 -1 -109 4 0 3 -9 -3 -20
-8 -15 -8 -20 2 -20 8 0 9 -3 3 -8 -13 -9 -15 -52 -2 -52 5 0 5 -6 -2 -13 -8
-10 -7 -17 1 -25 9 -9 9 -12 -1 -12 -11 0 -11 -3 -1 -15 7 -9 8 -15 2 -15 -5
0 -8 -10 -4 -22 4 -18 2 -20 -16 -16 -12 4 -22 1 -22 -4 0 -6 -6 -5 -15 2 -11
9 -15 9 -15 1 0 -9 -5 -9 -20 -1 -11 6 -20 7 -20 2 0 -10 -65 -6 -82 4 -7 5
-8 3 -3 -6 6 -9 2 -10 -15 -5 -15 5 -20 3 -16 -3 3 -6 2 -14 -4 -17 -6 -4 -9
-1 -8 6 2 7 -5 15 -16 17 -11 2 -16 0 -12 -7 4 -6 2 -11 -3 -11 -6 0 -11 5
-11 10 0 6 -5 10 -11 10 -5 0 -7 -6 -3 -12 5 -8 0 -7 -11 2 -11 9 -16 10 -11
3 10 -18 -4 -16 -28 4 -20 17 -20 17 -6 -1 13 -17 13 -19 0 -14 -8 3 -27 1
-43 -3 -15 -4 -25 -4 -23 0 3 4 -8 8 -24 8 l-30 0 0 -316 c0 -174 4 -311 8
-306 6 10 59 12 87 5 6 -1 15 -1 20 0 32 8 61 7 71 -1 8 -7 14 -6 19 1 4 7 12
7 26 0 10 -6 19 -7 19 -2 0 7 75 9 90 2 3 -1 10 -1 15 0 32 8 61 7 71 -1 8 -7
14 -6 19 1 4 7 12 7 26 0 10 -6 19 -7 19 -2 0 7 75 9 90 2 3 -1 10 -1 15 0 32
8 61 7 71 -1 8 -7 14 -6 19 1 4 7 12 7 26 0 10 -6 19 -7 19 -2 0 7 75 9 90 2
3 -1 10 -1 15 0 32 8 61 7 71 -1 8 -7 14 -6 19 1 4 7 12 7 26 0 10 -6 19 -7
19 -2 0 12 73 10 82 -3 5 -7 8 -6 8 1 0 6 11 10 24 9 13 -2 27 0 32 4 13 9 13
84 0 93 -7 5 -7 8 -1 8 6 0 11 22 11 50 1 34 -2 47 -10 43 -8 -5 -8 -3 0 8 13
17 13 168 0 188 -6 9 -5 12 1 8 5 -3 9 20 9 58 1 43 -3 62 -10 58 -6 -4 -6 -1
1 8 6 8 10 28 8 44 -6 54 6 61 79 55 36 -3 66 -3 66 0 0 3 18 5 40 5 22 0 40
-3 40 -7 0 -4 9 -4 20 0 11 4 47 5 80 2 33 -3 60 -3 60 0 0 3 18 5 40 5 22 0
40 -3 40 -7 0 -4 9 -4 20 0 11 4 47 5 80 2 33 -3 60 -3 60 0 0 3 18 5 40 5 22
0 40 -3 40 -7 0 -4 10 -4 22 1 13 4 35 5 50 0 17 -4 28 -4 28 2 0 6 8 5 20 -1
14 -8 20 -8 20 0 0 8 6 8 20 0 14 -8 20 -8 20 0 0 8 6 8 20 0 14 -8 20 -8 20
0 0 8 6 8 20 0 14 -8 20 -8 20 0 0 8 6 8 20 0 14 -8 20 -8 20 0 0 8 6 8 20 0
14 -8 20 -8 20 0 0 8 6 8 20 0 14 -8 20 -8 20 0 0 8 6 8 20 0 14 -8 20 -8 20
0 0 8 6 8 20 0 14 -8 20 -8 20 0 0 8 6 8 20 0 14 -8 20 -8 20 0 0 8 6 8 20 0
14 -8 20 -8 20 0 0 8 6 8 20 0 14 -8 20 -8 20 0 0 8 6 8 20 0 14 -8 20 -8 20
0 0 8 6 8 20 0 14 -8 20 -8 20 0 0 8 6 8 20 0 14 -8 20 -8 20 0 0 8 6 8 20 0
14 -8 20 -8 20 0 0 8 6 8 20 0 14 -8 20 -8 20 0 0 8 6 8 20 0 14 -8 20 -8 20
0 0 8 6 8 20 0 14 -8 20 -8 20 0 0 8 6 8 20 0 14 -8 20 -8 20 0 0 8 6 8 20 0
14 -8 20 -8 20 0 0 8 6 8 20 0 11 -6 20 -7 20 -3 0 11 41 9 63 -3 17 -10 19
-37 4 -61 -4 -6 -3 -14 2 -17 10 -6 9 -86 -1 -102 -4 -6 -4 -14 0 -18 11 -12
10 -70 -2 -78 -8 -6 -8 -8 0 -8 13 0 13 -109 0 -129 -6 -10 -5 -12 2 -7 14 8
11 -51 -2 -73 -6 -10 -5 -12 2 -7 14 8 11 -51 -2 -73 -7 -10 -5 -12 4 -6 8 5
11 3 8 -6 -7 -20 11 -51 24 -43 19 12 62 13 74 3 8 -7 14 -6 19 1 4 7 12 7 26
0 10 -6 19 -7 19 -2 0 7 75 9 90 2 3 -1 10 -1 15 0 32 8 61 7 71 -1 8 -7 14
-6 19 1 4 7 12 7 26 0 10 -6 19 -7 19 -2 0 7 75 9 90 2 3 -1 10 -1 15 0 32 8
61 7 71 -1 8 -7 14 -6 19 1 4 7 12 7 26 0 10 -6 19 -7 19 -2 0 7 75 9 90 2 3
-1 10 -1 15 0 32 8 61 7 71 -1 8 -7 14 -6 19 1 4 7 12 7 26 0 10 -6 19 -7 19
-2 0 7 75 9 90 2 3 -1 10 -1 15 0 32 8 61 7 71 -1 8 -7 14 -7 18 0 4 6 13 8
21 4 13 -4 15 34 15 288 0 291 -4 344 -21 333 -5 -3 -6 -11 -3 -17 4 -7 4 -9
-1 -5 -4 4 -15 2 -24 -5 -14 -11 -14 -10 -2 6 7 9 10 17 5 18 -47 6 -92 3
-103 -5 -11 -8 -13 -8 -7 2 9 15 -6 16 -22 0 -9 -9 -12 -9 -12 -1 0 11 -43 9
-61 -2 -4 -3 -12 2 -19 10 -7 9 -19 11 -32 6 -11 -4 -40 -4 -64 -1 -24 4 -44
3 -44 -1 0 -4 -14 -3 -31 3 -20 7 -27 14 -20 21 5 5 6 18 1 32 -4 12 -4 28 0
35 5 8 4 22 -1 31 -6 11 -5 20 1 24 5 3 6 15 0 29 -4 12 -5 28 0 35 4 7 4 28
0 47 -4 19 -4 37 1 40 5 3 5 13 -1 24 -6 12 -7 21 0 25 5 3 6 15 0 29 -4 12
-4 29 0 36 5 8 4 22 -1 31 -6 11 -5 20 1 24 6 3 6 15 0 29 -5 13 -6 27 -2 30
10 11 11 36 1 36 -5 0 -9 5 -9 11 0 5 3 8 8 6 4 -3 7 6 7 19 0 13 -3 24 -7 24
-3 0 -4 10 -1 21 5 20 3 21 -31 17 -21 -2 -36 0 -36 7 0 7 -3 7 -8 0 -9 -13
-105 -13 -114 0 -5 7 -8 7 -8 0 0 -5 -25 -10 -55 -10 -30 0 -55 5 -55 10 0 7
-3 7 -8 0 -4 -5 -14 -10 -22 -10 -8 0 -18 5 -22 10 -5 6 -8 6 -8 -1 0 -6 -7
-11 -15 -11 -8 0 -15 5 -15 11 0 7 -3 7 -8 1 -4 -5 -37 -10 -75 -10 -38 0 -67
4 -67 10 0 7 -3 7 -8 0 -4 -5 -14 -10 -22 -10 -8 0 -18 5 -22 10 -5 6 -8 6 -8
-1 0 -6 -7 -11 -15 -11 -8 0 -15 5 -15 11 0 7 -3 7 -8 1 -4 -5 -36 -10 -72
-10 -36 0 -68 5 -72 10 -5 7 -8 7 -8 0 0 -5 -11 -11 -25 -11 -14 -1 -22 2 -19
8 4 6 -3 5 -15 -1 -16 -9 -21 -9 -21 1 0 9 -2 10 -8 1 -5 -8 -8 283 -3 343 1
14 133 14 143 0 6 -8 8 -8 8 0 0 7 36 10 105 10 64 -1 105 3 105 9 0 6 3 6 8
-1 9 -13 144 -13 154 1 5 7 8 7 8 0 0 -12 209 -13 229 0 9 5 12 4 8 -2 -5 -7
13 -10 54 -8 64 3 84 16 69 45 -5 9 -5 22 0 30 5 8 5 21 -1 31 -6 11 -5 20 1
24 5 3 6 15 0 29 -4 12 -4 29 0 36 5 8 4 22 -1 31 -6 11 -5 20 1 24 5 3 6 15
0 29 -4 12 -4 29 0 36 5 8 4 22 -1 31 -6 11 -5 20 1 24 5 3 6 15 0 29 -4 12
-5 28 0 35 4 7 4 28 0 47 -4 19 -4 32 0 29 4 -2 7 9 6 25 -1 17 -4 30 -8 30
-4 0 -3 11 2 25 7 17 6 25 -1 25 -8 0 -8 4 0 13 6 8 7 17 1 23 -18 18 6 34 58
37 36 3 49 1 45 -7 -4 -6 -1 -6 8 1 12 10 18 10 29 0 10 -10 11 -9 5 2 -6 11
-4 13 8 8 9 -3 19 -1 23 5 4 7 9 6 14 -2 6 -9 13 -9 29 -1 14 8 21 8 21 1 0
-7 6 -8 18 -1 13 7 23 6 32 -2 10 -10 12 -8 6 8 -6 18 -5 19 7 3 14 -18 28
-15 23 5 -2 7 -1 9 2 4 9 -17 41 -27 48 -15 4 6 3 8 -4 4 -6 -3 -13 -2 -17 3
-3 6 6 7 22 4 16 -3 39 -6 53 -7 l25 -1 3 291 c2 253 0 293 -13 298 -8 3 -15
2 -15 -2 0 -5 -334 -7 -360 -2 -3 1 -57 0 -120 0 -145 -2 -182 -2 -195 0 -5 1
-44 1 -85 0 -41 -1 -92 -2 -112 -3 -21 0 -40 2 -43 5 -3 2 -24 2 -48 -2 -24
-3 -55 -3 -70 1 -15 4 -27 3 -27 -2 0 -5 -6 -8 -12 -6 -7 1 -12 -4 -10 -12 1
-7 -2 -19 -8 -25 -5 -7 -7 -16 -3 -20 12 -12 11 -106 -1 -106 -8 0 -8 -3 0 -8
5 -4 10 -34 10 -67 0 -33 -5 -63 -10 -67 -8 -5 -8 -8 0 -8 12 0 13 -108 2
-126 -4 -6 -4 -14 -1 -18 4 -4 8 -27 9 -51 2 -41 -1 -47 -22 -44 -4 0 -11 -5
-15 -13 -5 -7 -9 -8 -9 -2 0 6 -7 11 -15 11 -8 0 -15 -5 -15 -11 0 -7 -3 -7
-8 -1 -11 15 -32 17 -32 2 0 -9 -2 -9 -9 1 -4 8 -12 14 -16 14 -4 0 -12 -6
-16 -14 -6 -8 -12 -9 -16 -3 -9 12 -48 14 -58 3 -4 -4 -16 -3 -26 2 -12 7 -20
7 -24 0 -4 -6 -12 -7 -18 -3 -17 10 -47 11 -53 1 -3 -4 -14 -4 -24 2 -13 7
-21 7 -25 0 -4 -6 -12 -7 -18 -3 -20 12 -37 12 -37 0 0 -7 -6 -3 -12 8 -15 25
-17 117 -3 127 7 5 7 8 0 8 -6 0 -9 37 -9 93 1 62 5 91 13 90 6 -2 11 1 11 6
0 6 12 6 30 1 17 -5 30 -5 30 -1 0 4 27 4 60 1 33 -3 60 -3 60 0 0 3 34 5 77
5 76 0 76 0 80 28 2 17 -1 27 -9 27 -6 0 -3 7 8 15 12 9 13 13 4 10 -11 -4
-16 1 -17 15 -1 13 2 18 10 14 7 -4 2 4 -10 17 -15 17 -19 29 -13 39 5 9 5 19
-1 26 -6 7 -9 18 -8 26 3 26 -1 39 -11 33 -8 -5 -13 20 -9 51 0 3 -9 13 -19
23 -16 13 -18 21 -10 35 6 10 7 17 2 14 -14 -8 -39 25 -38 49 1 14 -3 20 -12
16 -12 -5 -19 8 -15 30 0 4 -6 7 -14 7 -8 0 -17 11 -21 25 -3 14 -10 22 -15
20 -5 -3 -11 6 -15 20 -3 14 -13 25 -21 25 -8 0 -11 5 -8 10 4 6 3 10 -2 9
-19 -3 -33 2 -33 12 0 5 5 7 12 3 7 -4 8 -3 4 4 -4 6 -13 9 -20 6 -7 -3 -16 2
-19 10 -4 9 -14 16 -22 16 -9 0 -13 5 -10 10 3 6 -3 10 -15 10 -11 0 -23 7
-27 16 -3 8 -12 13 -20 10 -8 -4 -17 3 -23 17 -5 12 -9 16 -9 9 -1 -10 -5 -9
-17 3 -14 13 -19 14 -25 3 -7 -11 -9 -11 -9 1 0 8 -6 11 -16 7 -8 -3 -12 -2
-9 4 6 10 -3 13 -37 13 -10 0 -18 5 -18 11 0 6 -4 5 -9 -3 -6 -9 -10 -10 -16
-2 -5 9 -10 9 -20 1 -9 -7 -16 -6 -26 7 -13 17 -13 17 6 3 18 -14 19 -14 6 2
-9 13 -18 15 -31 8 -9 -5 -21 -6 -25 -2 -10 10 -175 10 -169 0 8 -12 -30 -10
-42 2 -7 7 -11 6 -11 -4z m667 -216 c0 -5 -2 -10 -4 -10 -3 0 -8 5 -11 10 -3
6 -1 10 4 10 6 0 11 -4 11 -10z m-2415 -890 c3 -5 1 -10 -4 -10 -6 0 -11 5
-11 10 0 6 2 10 4 10 3 0 8 -4 11 -10z m3765 -1736 c0 -8 -19 -13 -24 -6 -3 5
1 9 9 9 8 0 15 -2 15 -3z"/>
<path d="M36 2538 c3 -5 10 -6 15 -3 13 9 11 12 -6 12 -8 0 -12 -4 -9 -9z"/>
</g>
</svg>
